<svg xmlns="http://www.w3.org/2000/svg" width="11.597" height="14.91" viewBox="0 0 11.597 14.91"><g transform="translate(-60 -4)"><g transform="translate(60 4)"><path d="M65.8,4A5.8,5.8,0,0,0,60,9.8c0,1.553.941,3.548,2.8,5.928a31.531,31.531,0,0,0,2.756,3.085.355.355,0,0,0,.491,0A31.53,31.53,0,0,0,68.8,15.726c1.856-2.38,2.8-4.375,2.8-5.928A5.8,5.8,0,0,0,65.8,4Zm0,9.94A4.142,4.142,0,1,1,69.94,9.8,4.146,4.146,0,0,1,65.8,13.94Z" transform="translate(-60 -4)"/><path d="M161.8,102.459l-2.6-2.367a.355.355,0,0,0-.478,0l-2.6,2.367a.355.355,0,0,0-.066.445.365.365,0,0,0,.315.173h.344v2.248a.355.355,0,0,0,.355.355h.828a.355.355,0,0,0,.355-.355v-1.3a.355.355,0,0,1,.355-.355h.71a.355.355,0,0,1,.355.355v1.3a.355.355,0,0,0,.355.355h.828a.355.355,0,0,0,.355-.355v-2.248h.344a.365.365,0,0,0,.315-.173A.355.355,0,0,0,161.8,102.459Z" transform="translate(-153.159 -97.16)"/></g></g></svg>